<svg width="100" height="75" viewBox="0 0 100 75" fill="none" xmlns="http://www.w3.org/2000/svg">
<path d="M100 37.5C100 16.7843 77.621 0 50 0C22.379 0 0 16.7843 0 37.5C0 58.2157 22.379 75 50 75C77.621 75 100 58.2157 100 37.5ZM9.67742 37.5C9.67742 20.7913 27.7218 7.25806 50 7.25806C72.2782 7.25806 90.3226 20.7913 90.3226 37.5C90.3226 54.2087 72.2782 67.7419 50 67.7419C27.7218 67.7419 9.67742 54.2087 9.67742 37.5ZM24.1935 40.5242V34.4758C24.1935 33.4778 25.2823 32.6613 26.6129 32.6613H50V22.5302C50 20.9123 52.6008 20.1109 54.1331 21.245L74.0927 36.2147C75.0403 36.9254 75.0403 38.0746 74.0927 38.7853L54.1331 53.755C52.6008 54.9042 50 54.0877 50 52.4698V42.3387H26.6129C25.2823 42.3387 24.1935 41.5222 24.1935 40.5242Z" fill="#F4B335"/>
</svg>
